<svg preserveAspectRatio="none" overflow="visible" style="display: block;" width="99" height="29.4558" viewBox="0 0 99 29.4558" fill="none" xmlns="http://www.w3.org/2000/svg">
<path id="Arrow 6" d="M2 12.7279C0.89543 12.7279 0 13.6234 0 14.7279C0 15.8325 0.89543 16.7279 2 16.7279V14.7279V12.7279ZM98.4142 16.1421C99.1953 15.3611 99.1953 14.0948 98.4142 13.3137L85.6863 0.585787C84.9052 -0.195262 83.6389 -0.195262 82.8579 0.585787C82.0768 1.36684 82.0768 2.63317 82.8579 3.41421L94.1716 14.7279L82.8579 26.0416C82.0768 26.8227 82.0768 28.089 82.8579 28.8701C83.6389 29.6511 84.9052 29.6511 85.6863 28.8701L98.4142 16.1421ZM2 14.7279V16.7279H97V14.7279V12.7279H2V14.7279Z" fill="#F1F11D"/>
</svg>
