<svg preserveAspectRatio="none" overflow="visible" style="display: block;" width="178" height="29.4558" viewBox="0 0 178 29.4558" fill="none" xmlns="http://www.w3.org/2000/svg">
<path id="Arrow 5" d="M2 12.7279C0.89543 12.7279 0 13.6234 0 14.7279C0 15.8325 0.89543 16.7279 2 16.7279V14.7279V12.7279ZM177.414 16.1421C178.195 15.3611 178.195 14.0948 177.414 13.3137L164.686 0.585787C163.905 -0.195262 162.639 -0.195262 161.858 0.585787C161.077 1.36684 161.077 2.63317 161.858 3.41421L173.172 14.7279L161.858 26.0416C161.077 26.8227 161.077 28.089 161.858 28.8701C162.639 29.6511 163.905 29.6511 164.686 28.8701L177.414 16.1421ZM2 14.7279V16.7279H176V14.7279V12.7279H2V14.7279Z" fill="#FF0000"/>
</svg>
