<svg preserveAspectRatio="none" overflow="visible" style="display: block;" width="40.8596" height="40.6667" viewBox="0 0 40.8596 40.6667" fill="none" xmlns="http://www.w3.org/2000/svg">
<path id="Icon" d="M9.50636 18.9195C9.39241 18.1851 9.33329 17.4327 9.33329 16.6667C9.33329 8.56649 15.943 2 24.0964 2C32.2499 2 38.8596 8.56649 38.8596 16.6667C38.8596 18.4965 38.5223 20.248 37.9061 21.8633C37.7782 22.1987 37.7142 22.3665 37.6851 22.4974C37.6563 22.6272 37.6452 22.7185 37.6421 22.8513C37.6389 22.9854 37.6571 23.1332 37.6935 23.4286L38.4316 29.424C38.5115 30.073 38.5514 30.3975 38.4435 30.6334C38.3489 30.8401 38.1809 31.0043 37.972 31.0941C37.7337 31.1966 37.4102 31.1492 36.7632 31.0543L30.9235 30.1983C30.6186 30.1536 30.4661 30.1313 30.3273 30.1321C30.1899 30.1329 30.0949 30.143 29.9605 30.1713C29.8246 30.1998 29.651 30.2649 29.3038 30.3949C27.6844 31.0015 25.9295 31.3333 24.0964 31.3333C23.3298 31.3333 22.5767 31.2753 21.8416 31.1633M12.3246 38.6667C17.7602 38.6667 22.1667 34.1522 22.1667 28.5833C22.1667 23.0145 17.7602 18.5 12.3246 18.5C6.88894 18.5 2.48248 23.0145 2.48248 28.5833C2.48248 29.7028 2.66053 30.7796 2.9892 31.7857C3.12813 32.211 3.1976 32.4236 3.2204 32.5689C3.2442 32.7205 3.24837 32.8057 3.23951 32.959C3.23102 33.1058 3.19429 33.2717 3.12083 33.6036L2.00003 38.6667L7.4905 37.9168C7.79018 37.8759 7.94002 37.8554 8.07087 37.8563C8.20865 37.8573 8.28177 37.8647 8.41689 37.8917C8.54522 37.9172 8.73599 37.9846 9.11752 38.1192C10.1228 38.474 11.2017 38.6667 12.3246 38.6667Z" stroke="#F1F11D" stroke-width="4" stroke-linecap="round" stroke-linejoin="round"/>
</svg>
