<svg preserveAspectRatio="none" overflow="visible" style="display: block;" width="626.825" height="192.134" viewBox="0 0 626.825 192.134" fill="none" xmlns="http://www.w3.org/2000/svg">
<path id="Vector 9" d="M0 5.33333C0 8.27885 2.38781 10.6667 5.33333 10.6667C8.27885 10.6667 10.6667 8.27885 10.6667 5.33333C10.6667 2.38781 8.27885 0 5.33333 0C2.38781 0 0 2.38781 0 5.33333ZM616.158 186.801C616.158 189.746 618.546 192.134 621.491 192.134C624.437 192.134 626.825 189.746 626.825 186.801C626.825 183.855 624.437 181.467 621.491 181.467C618.546 181.467 616.158 183.855 616.158 186.801ZM5.33333 5.33333L5.05082 6.2926L621.209 187.76L621.491 186.801L621.774 185.841L5.61585 4.37407L5.33333 5.33333Z" fill="#FF0000"/>
</svg>
