<svg preserveAspectRatio="none" overflow="visible" style="display: block;" width="64" height="64" viewBox="0 0 64 64" fill="none" xmlns="http://www.w3.org/2000/svg">
<path id="LinkedIn" d="M59.4286 0C61.8571 0 64 2.14286 64 4.71429V59.4286C64 62 61.8571 64 59.4286 64H4.42857C2 64 0 62 0 59.4286V4.71429C0 2.14286 2 0 4.42857 0H59.4286ZM19.2857 54.8571V24.4286H9.85714V54.8571H19.2857ZM14.5714 20.1429C17.5714 20.1429 20 17.7143 20 14.7143C20 11.7143 17.5714 9.14286 14.5714 9.14286C11.4286 9.14286 9 11.7143 9 14.7143C9 17.7143 11.4286 20.1429 14.5714 20.1429ZM54.8571 54.8571V38.1429C54.8571 30 53 23.5714 43.4286 23.5714C38.8571 23.5714 35.7143 26.1429 34.4286 28.5714H34.2857V24.4286H25.2857V54.8571H34.7143V39.8571C34.7143 35.8571 35.4286 32 40.4286 32C45.2857 32 45.2857 36.5714 45.2857 40V54.8571H54.8571Z" fill="#1A1818"/>
</svg>
